<svg xmlns="http://www.w3.org/2000/svg" xmlns:xlink="http://www.w3.org/1999/xlink" width="791" height="359" viewBox="0 0 791 359"><defs><style>.a{fill:#f9f8f6;}.b{opacity:0.53;mix-blend-mode:multiply;isolation:isolate;clip-path:url(#a);}.c{opacity:0.47;}.d{fill:none;stroke:#adadad;}</style><clipPath id="a"><rect class="a" width="791" height="359" transform="translate(984 2977)"/></clipPath></defs><g class="b" transform="translate(-984 -2977)"><g class="c" transform="translate(1082.979 8951.76) rotate(180)"><g transform="translate(799.77 12057.043) rotate(180)"><path class="d" d="M39.578,0,59.366,34.275,79.155,68.55H0L19.788,34.275Z" transform="translate(783.536 5741.332) rotate(60)"/><path class="d" d="M39.578,0,59.366,34.275,79.155,68.55H0L19.788,34.275Z" transform="translate(703.722 5741.332) rotate(60)"/><path class="d" d="M39.578,0,59.366,34.275,79.155,68.55H0L19.788,34.275Z" transform="translate(822.59 5810.44) rotate(60)"/><path class="d" d="M39.578,0,59.366,34.275,79.155,68.55H0L19.788,34.275Z" transform="translate(742.556 5810.511) rotate(60)"/><path class="d" d="M39.578,0,59.366,34.275,79.155,68.55H0L19.788,34.275Z" transform="translate(663.893 5809.733) rotate(60)"/><path class="d" d="M39.578,0,59.366,34.275,79.155,68.55H0L19.788,34.275Z" transform="translate(704.183 5879.089) rotate(-120)"/><path class="d" d="M39.578,0,59.366,34.275,79.155,68.55H0L19.788,34.275Z" transform="translate(743.281 5672.844) rotate(60)"/><path class="d" d="M39.578,0,59.366,34.275,79.155,68.55H0L19.788,34.275Z" transform="translate(665.281 5672.844) rotate(60)"/><path class="d" d="M39.578,0,59.366,34.275,79.155,68.55H0L19.788,34.275Z" transform="translate(624.369 5877.899) rotate(-120)"/><path class="d" d="M39.578,0,59.366,34.275,79.155,68.55H0L19.788,34.275Z" transform="translate(743.517 5946.897) rotate(-120)"/><path class="d" d="M39.578,0,59.366,34.275,79.155,68.55H0L19.788,34.275Z" transform="translate(821.517 5946.897) rotate(-120)"/><path class="d" d="M39.578,0,59.366,34.275,79.155,68.55H0L19.788,34.275Z" transform="translate(783.499 5879.092) rotate(-120)"/><path class="d" d="M39.578,0,59.366,34.275,79.155,68.55H0L19.788,34.275Z" transform="translate(663.8 5947.13) rotate(-120)"/><path class="d" d="M39.578,0,59.366,34.275,79.155,68.55H0L19.788,34.275Z" transform="translate(743.136 5809.775) rotate(-120)"/><path class="d" d="M39.578,0,59.366,34.275,79.155,68.55H0L19.788,34.275Z" transform="translate(663.916 5809.775) rotate(-120)"/></g><g transform="translate(797.77 11642.043) rotate(180)"><path class="d" d="M39.578,0,59.366,34.275,79.155,68.55H0L19.788,34.275Z" transform="translate(783.536 5742.332) rotate(60)"/><path class="d" d="M39.578,0,59.366,34.275,79.155,68.55H0L19.788,34.275Z" transform="translate(703.722 5741.332) rotate(60)"/><path class="d" d="M39.578,0,59.366,34.275,79.155,68.55H0L19.788,34.275Z" transform="translate(822.59 5810.44) rotate(60)"/><path class="d" d="M39.578,0,59.366,34.275,79.155,68.55H0L19.788,34.275Z" transform="translate(743.556 5810.511) rotate(60)"/><path class="d" d="M39.578,0,59.366,34.275,79.155,68.55H0L19.788,34.275Z" transform="translate(663.893 5809.733) rotate(60)"/><path class="d" d="M39.578,0,59.366,34.275,79.155,68.55H0L19.788,34.275Z" transform="translate(704.183 5879.089) rotate(-120)"/><path class="d" d="M39.578,0,59.366,34.275,79.155,68.55H0L19.788,34.275Z" transform="translate(743.281 5672.844) rotate(60)"/><path class="d" d="M39.578,0,59.366,34.275,79.155,68.55H0L19.788,34.275Z" transform="translate(665.281 5672.844) rotate(60)"/><path class="d" d="M39.578,0,59.366,34.275,79.155,68.55H0L19.788,34.275Z" transform="translate(624.369 5877.899) rotate(-120)"/><path class="d" d="M39.578,0,59.366,34.275,79.155,68.55H0L19.788,34.275Z" transform="translate(743.517 5946.897) rotate(-120)"/><path class="d" d="M39.578,0,59.366,34.275,79.155,68.55H0L19.788,34.275Z" transform="translate(783.499 5879.092) rotate(-120)"/><path class="d" d="M39.578,0,59.366,34.275,79.155,68.55H0L19.788,34.275Z" transform="translate(663.8 5947.13) rotate(-120)"/><path class="d" d="M39.578,0,59.366,34.275,79.155,68.55H0L19.788,34.275Z" transform="translate(743.136 5809.775) rotate(-120)"/><path class="d" d="M39.578,0,59.366,34.275,79.155,68.55H0L19.788,34.275Z" transform="translate(663.916 5809.775) rotate(-120)"/></g><g transform="translate(759.77 11849.043) rotate(180)"><path class="d" d="M39.578,0,59.366,34.275,79.155,68.55H0L19.788,34.275Z" transform="translate(783.536 5741.332) rotate(60)"/><path class="d" d="M39.578,0,59.366,34.275,79.155,68.55H0L19.788,34.275Z" transform="translate(703.722 5741.332) rotate(60)"/><path class="d" d="M39.777,0,59.666,34.448,79.555,68.9H0L19.888,34.448Z" transform="translate(822.889 5809.267) rotate(60)"/><path class="d" d="M39.578,0,59.366,34.275,79.155,68.55H0L19.788,34.275Z" transform="translate(742.556 5810.511) rotate(60)"/><path class="d" d="M39.578,0,59.366,34.275,79.155,68.55H0L19.788,34.275Z" transform="translate(663.893 5809.733) rotate(60)"/><path class="d" d="M39.578,0,59.366,34.275,79.155,68.55H0L19.788,34.275Z" transform="translate(704.183 5879.089) rotate(-120)"/><path class="d" d="M39.578,0,59.366,34.275,79.155,68.55H0L19.788,34.275Z" transform="translate(743.281 5672.844) rotate(60)"/><path class="d" d="M39.578,0,59.366,34.275,79.155,68.55H0L19.788,34.275Z" transform="translate(665.281 5672.844) rotate(60)"/><path class="d" d="M39.578,0,59.366,34.275,79.155,68.55H0L19.788,34.275Z" transform="translate(624.369 5877.899) rotate(-120)"/><path class="d" d="M39.578,0,59.366,34.275,79.155,68.55H0L19.788,34.275Z" transform="translate(743.517 5946.897) rotate(-120)"/><path class="d" d="M39.578,0,59.366,34.275,79.155,68.55H0L19.788,34.275Z" transform="translate(783.499 5879.092) rotate(-120)"/><path class="d" d="M39.578,0,59.366,34.275,79.155,68.55H0L19.788,34.275Z" transform="translate(663.8 5947.13) rotate(-120)"/><path class="d" d="M39.578,0,59.366,34.275,79.155,68.55H0L19.788,34.275Z" transform="translate(743.136 5809.775) rotate(-120)"/><path class="d" d="M39.578,0,59.366,34.275,79.155,68.55H0L19.788,34.275Z" transform="translate(663.916 5809.775) rotate(-120)"/></g><g transform="translate(755.77 11434.043) rotate(180)"><path class="d" d="M38.976,0,58.464,33.754,77.952,67.508H0L19.488,33.754Z" transform="translate(780.771 5739.959) rotate(60)"/><path class="d" d="M39.578,0,59.366,34.275,79.155,68.55H0L19.788,34.275Z" transform="translate(701.722 5739.332) rotate(60)"/><path class="d" d="M39.578,0,59.366,34.275,79.155,68.55H0L19.788,34.275Z" transform="translate(822.59 5810.44) rotate(60)"/><path class="d" d="M39.578,0,59.366,34.275,79.155,68.55H0L19.788,34.275Z" transform="translate(742.556 5810.511) rotate(60)"/><path class="d" d="M39.578,0,59.366,34.275,79.155,68.55H0L19.788,34.275Z" transform="translate(663.893 5809.733) rotate(60)"/><path class="d" d="M39.578,0,59.366,34.275,79.155,68.55H0L19.788,34.275Z" transform="translate(702.183 5876.089) rotate(-120)"/><path class="d" d="M39.578,0,59.366,34.275,79.155,68.55H0L19.788,34.275Z" transform="translate(741.281 5669.844) rotate(60)"/><path class="d" d="M39.578,0,59.366,34.275,79.155,68.55H0L19.788,34.275Z" transform="translate(662.281 5670.844) rotate(60)"/><path class="d" d="M39.578,0,59.366,34.275,79.155,68.55H0L19.788,34.275Z" transform="translate(622.369 5877.899) rotate(-120)"/><path class="d" d="M39.578,0,59.366,34.275,79.155,68.55H0L19.788,34.275Z" transform="translate(743.517 5946.897) rotate(-120)"/><path class="d" d="M39.578,0,59.366,34.275,79.155,68.55H0L19.788,34.275Z" transform="translate(821.517 5946.897) rotate(-120)"/><path class="d" d="M39.578,0,59.366,34.275,79.155,68.55H0L19.788,34.275Z" transform="translate(780.499 5876.092) rotate(-120)"/><path class="d" d="M39.578,0,59.366,34.275,79.155,68.55H0L19.788,34.275Z" transform="translate(663.8 5947.13) rotate(-120)"/><path class="d" d="M39.578,0,59.366,34.275,79.155,68.55H0L19.788,34.275Z" transform="translate(741.136 5807.775) rotate(-120)"/><path class="d" d="M39.578,0,59.366,34.275,79.155,68.55H0L19.788,34.275Z" transform="translate(662.916 5807.775) rotate(-120)"/></g></g></g></svg>