<svg xmlns="http://www.w3.org/2000/svg" width="457.261" height="297.566" viewBox="0 0 457.261 297.566"><defs><style>.a{fill:none;stroke:#cfcfcf;}</style></defs><g transform="translate(472.949 1979.901) rotate(-120)"><path class="a" d="M56.888,0,85.332,49.266l28.445,49.267H0L28.443,49.266Z" transform="translate(1551.623 680.134) rotate(-60)"/><path class="a" d="M56.888,0,85.332,49.266l28.445,49.267H0L28.443,49.266Z" transform="translate(1607.986 778.489) rotate(-60)"/><path class="a" d="M56.888,0,85.332,49.266l28.445,49.267H0L28.443,49.266Z" transform="translate(1608.583 580.853) rotate(-60)"/><path class="a" d="M56.888,0,85.332,49.266l28.445,49.267H0L28.443,49.266Z" transform="translate(1665.19 679.428) rotate(-60)"/><path class="a" d="M56.888,0,85.332,49.266l28.445,49.267H0L28.443,49.266Z" transform="translate(1721.758 777.908) rotate(-60)"/><path class="a" d="M56.888,0,85.332,49.266l28.445,49.267H0L28.443,49.266Z" transform="translate(1779.136 679.908) rotate(120)"/><path class="a" d="M56.888,0,85.332,49.266l28.445,49.267H0L28.443,49.266Z" transform="translate(1494.3 778.466) rotate(-60)"/><path class="a" d="M56.888,0,85.332,49.266l28.445,49.267H0L28.443,49.266Z" transform="translate(1551.358 876.562) rotate(-60)"/><path class="a" d="M56.888,0,85.332,49.266l28.445,49.267H0L28.443,49.266Z" transform="translate(1835.017 778.118) rotate(120)"/><path class="a" d="M56.888,0,85.332,49.266l28.445,49.267H0L28.443,49.266Z" transform="translate(1836.276 581.212) rotate(120)"/><path class="a" d="M56.888,0,85.332,49.266l28.445,49.267H0L28.443,49.266Z" transform="translate(1779.218 482.117) rotate(120)"/><path class="a" d="M56.888,0,85.332,49.266l28.445,49.267H0L28.443,49.266Z" transform="translate(1722.136 581.173) rotate(120)"/><path class="a" d="M56.888,0,85.332,49.266l28.445,49.267H0L28.443,49.266Z" transform="translate(1892.857 679.277) rotate(120)"/><path class="a" d="M56.888,0,85.332,49.266l28.445,49.267H0L28.443,49.266Z" transform="translate(1664.859 680.235) rotate(120)"/><path class="a" d="M56.888,0,85.332,49.266l28.445,49.267H0L28.443,49.266Z" transform="translate(1721.793 777.849) rotate(120)"/></g></svg>