<?xml version="1.0" encoding="utf-8"?>
<!-- Generator: Adobe Illustrator 23.0.1, SVG Export Plug-In . SVG Version: 6.00 Build 0)  -->
<svg class="bg-path" version="1.1" id="Layer_1" xmlns="http://www.w3.org/2000/svg" xmlns:xlink="http://www.w3.org/1999/xlink" x="0px" y="0px"
	 viewBox="0 0 300.1 402.3" style="enable-background:new 0 0 300.1 402.3;" xml:space="preserve">
<style type="text/css">
	.st0{fill:none;stroke:#CFCFCF;}
</style>
<g transform="translate(1301.039 1649.566) rotate(-150)">
	<path class="st0" d="M1635.7,630.4l56.9,0l56.9,0l-56.9,98.5l-28.4-49.3L1635.7,630.4z"/>
	<path class="st0" d="M1692.1,728.8l56.9,0l56.9,0l-56.9,98.5l-28.4-49.3L1692.1,728.8z"/>
	<path class="st0" d="M1692.7,531.1l56.9,0l56.9,0l-56.9,98.5l-28.4-49.3L1692.7,531.1z"/>
	<path class="st0" d="M1749.3,629.7l56.9,0l56.9,0l-56.9,98.5l-28.4-49.3L1749.3,629.7z"/>
	<path class="st0" d="M1805.8,728.2l56.9,0l56.9,0l-56.9,98.5l-28.4-49.3L1805.8,728.2z"/>
	<path class="st0" d="M1806.3,728.7l-56.9,0l-56.9,0l56.9-98.5l28.4,49.3L1806.3,728.7z"/>
	<path class="st0" d="M1578.4,728.8l56.9,0l56.9,0l-56.9,98.5l-28.4-49.3L1578.4,728.8z"/>
	<path class="st0" d="M1635.4,826.9l56.9,0l56.9,0l-56.9,98.5l-28.4-49.3L1635.4,826.9z"/>
	<path class="st0" d="M1862.2,826.9l-56.9,0l-56.9,0l56.9-98.5l28.4,49.3L1862.2,826.9z"/>
	<path class="st0" d="M1863.5,630l-56.9,0l-56.9,0l56.9-98.5l28.4,49.3L1863.5,630z"/>
	<path class="st0" d="M1806.4,530.9l-56.9,0l-56.9,0l56.9-98.5l28.4,49.3L1806.4,530.9z"/>
	<path class="st0" d="M1749.3,630l-56.9,0l-56.9,0l56.9-98.5l28.4,49.3L1749.3,630z"/>
	<path class="st0" d="M1920.1,728.1l-56.9,0l-56.9,0l56.9-98.5l28.4,49.3L1920.1,728.1z"/>
	<path class="st0" d="M1692.1,729.1l-56.9,0l-56.9,0l56.9-98.5l28.4,49.3L1692.1,729.1z"/>
	<path class="st0" d="M1749,826.7l-56.9,0l-56.9,0l56.9-98.5l28.4,49.3L1749,826.7z"/>
</g>
</svg>
