<?xml version="1.0" encoding="utf-8"?>
<!-- Generator: Adobe Illustrator 23.0.1, SVG Export Plug-In . SVG Version: 6.00 Build 0)  -->
<svg version="1.1" id="Layer_1" xmlns="http://www.w3.org/2000/svg" xmlns:xlink="http://www.w3.org/1999/xlink" x="0px" y="0px"
	 viewBox="0 0 537.6 873.6" style="enable-background:new 0 0 537.6 873.6;" xml:space="preserve">
<style type="text/css">
	.st0{fill:none;stroke:#CFCFCF;}
</style>
<g transform="translate(-1493.001 -431.851)">
	<path class="st0" d="M1580.1,650.4l56.9,0l56.9,0l-56.9,98.5l-28.4-49.3L1580.1,650.4z"/>
	<path class="st0" d="M1636.4,748.7l56.9,0l56.9,0l-56.9,98.5l-28.4-49.3L1636.4,748.7z"/>
	<path class="st0" d="M1637,551.1l56.9,0l56.9,0l-56.9,98.5l-28.4-49.3L1637,551.1z"/>
	<path class="st0" d="M1693.6,649.7l56.9,0l56.9,0l-56.9,98.5l-28.4-49.3L1693.6,649.7z"/>
	<path class="st0" d="M1750.2,748.1l56.9,0l56.9,0l-56.9,98.5l-28.4-49.3L1750.2,748.1z"/>
	<path class="st0" d="M1750.7,748.7l-56.9,0l-56.9,0l56.9-98.5l28.4,49.3L1750.7,748.7z"/>
	<path class="st0" d="M1522.7,748.7l56.9,0l56.9,0l-56.9,98.5l-28.4-49.3L1522.7,748.7z"/>
	<path class="st0" d="M1579.8,846.8l56.9,0l56.9,0l-56.9,98.5l-28.4-49.3L1579.8,846.8z"/>
	<path class="st0" d="M1806.6,846.9l-56.9,0l-56.9,0l56.9-98.5l28.4,49.3L1806.6,846.9z"/>
	<path class="st0" d="M1807.8,650l-56.9,0l-56.9,0l56.9-98.5l28.4,49.3L1807.8,650z"/>
	<path class="st0" d="M1750.8,550.9l-56.9,0l-56.9,0l56.9-98.5l28.4,49.3L1750.8,550.9z"/>
	<path class="st0" d="M1693.7,649.9l-56.9,0l-56.9,0l56.9-98.5l28.4,49.3L1693.7,649.9z"/>
	<path class="st0" d="M1864.4,748l-56.9,0l-56.9,0l56.9-98.5l28.4,49.3L1864.4,748z"/>
	<path class="st0" d="M1636.4,749l-56.9,0l-56.9,0l56.9-98.5l28.4,49.3L1636.4,749z"/>
	<path class="st0" d="M1693.3,846.6l-56.9,0l-56.9,0l56.9-98.5l28.4,49.3L1693.3,846.6z"/>
</g>
<g transform="translate(-1493.001 -431.851)">
	<path class="st0" d="M1941.5,1092.9l-56.9,0l-56.9,0l56.9-98.5l28.4,49.3L1941.5,1092.9z"/>
	<path class="st0" d="M1885.1,994.6l-56.9,0l-56.9,0l56.9-98.5l28.4,49.3L1885.1,994.6z"/>
	<path class="st0" d="M1884.5,1192.2l-56.9,0l-56.9,0l56.9-98.5l28.4,49.3L1884.5,1192.2z"/>
	<path class="st0" d="M1827.9,1093.7l-56.9,0l-56.9,0l56.9-98.5l28.4,49.3L1827.9,1093.7z"/>
	<path class="st0" d="M1771.3,995.2l-56.9,0l-56.9,0l56.9-98.5l28.4,49.3L1771.3,995.2z"/>
	<path class="st0" d="M1770.8,994.6l56.9,0l56.9,0l-56.9,98.5l-28.4-49.3L1770.8,994.6z"/>
	<path class="st0" d="M1998.8,994.6l-56.9,0l-56.9,0l56.9-98.5l28.4,49.3L1998.8,994.6z"/>
	<path class="st0" d="M1941.7,896.5l-56.9,0l-56.9,0l56.9-98.5l28.4,49.3L1941.7,896.5z"/>
	<path class="st0" d="M1714.9,896.4l56.9,0l56.9,0l-56.9,98.5l-28.4-49.3L1714.9,896.4z"/>
	<path class="st0" d="M1713.7,1093.3l56.9,0l56.9,0l-56.9,98.5l-28.4-49.3L1713.7,1093.3z"/>
	<path class="st0" d="M1770.7,1192.4l56.9,0l56.9,0l-56.9,98.5l-28.4-49.3L1770.7,1192.4z"/>
	<path class="st0" d="M1827.8,1093.4l56.9,0l56.9,0l-56.9,98.5l-28.4-49.3L1827.8,1093.4z"/>
	<path class="st0" d="M1657.1,995.3l56.9,0l56.9,0l-56.9,98.5l-28.4-49.3L1657.1,995.3z"/>
	<path class="st0" d="M1885.1,994.3l56.9,0l56.9,0l-56.9,98.5l-28.4-49.3L1885.1,994.3z"/>
	<path class="st0" d="M1828.2,896.7l56.9,0l56.9,0l-56.9,98.5l-28.4-49.3L1828.2,896.7z"/>
</g>
</svg>
