<?xml version="1.0" encoding="utf-8"?>
<!-- Generator: Adobe Illustrator 23.0.1, SVG Export Plug-In . SVG Version: 6.00 Build 0)  -->
<svg width="41px" version="1.1" id="Layer_1" xmlns="http://www.w3.org/2000/svg" xmlns:xlink="http://www.w3.org/1999/xlink" x="0px" y="0px"
	 viewBox="0 0 26.3 39.3" style="enable-background:new 0 0 26.3 39.3;" xml:space="preserve">

<path fill="#170573" d="M12.9,39.1c-0.2-0.2-0.5-0.4-0.6-0.7c-3.5-6.3-7-12.6-10.5-18.9c-1.3-2.4-1.9-5-1.6-7.7
	C0.8,7.2,3.2,3.6,7.4,1.5c4.4-2.2,8.8-1.8,12.9,0.9c3.2,2.1,5.1,5.2,5.6,9c0.4,2.9-0.1,5.5-1.5,8.1c-3.5,6.3-7,12.6-10.5,18.9
	c-0.1,0.3-0.4,0.5-0.6,0.7C13.2,39.1,13.1,39.1,12.9,39.1z M13.2,6.7c-3.5-0.1-6.5,2.8-6.5,6.4c-0.1,3.5,2.8,6.5,6.4,6.6
	c3.6,0.1,6.5-2.8,6.6-6.4C19.7,9.7,16.8,6.7,13.2,6.7z"/>
</svg>
